<svg width="173" height="42" viewBox="0 0 173 42" fill="none" xmlns="http://www.w3.org/2000/svg">
<g clip-path="url(#clip0)">
<path d="M164.359 30.064L162.77 38.5435L161.106 30.064H158.549V41.8757H160.337V34.4654L162.05 41.8757H163.49L165.03 34.4654V41.8757H166.793V30.064H164.359Z" fill="#F9A720"/>
<path d="M153.185 29.9395C153.979 29.9395 154.625 30.213 155.171 30.7601C155.718 31.3071 155.991 31.9785 155.991 32.7494V39.1899C155.991 39.9856 155.718 40.6322 155.171 41.1792C154.625 41.7263 153.955 41.9998 153.185 41.9998C152.39 41.9998 151.745 41.7263 151.198 41.1792C150.652 40.6322 150.379 39.9608 150.379 39.1899V32.7494C150.379 31.9785 150.652 31.3071 151.198 30.7601C151.745 30.213 152.415 29.9395 153.185 29.9395ZM154.153 32.7245C154.153 32.451 154.054 32.2023 153.855 32.0034C153.657 31.8045 153.408 31.705 153.135 31.705C152.862 31.705 152.614 31.8045 152.415 32.0034C152.216 32.2023 152.117 32.451 152.117 32.7245V39.1899C152.117 39.4634 152.216 39.7121 152.415 39.911C152.614 40.11 152.862 40.2094 153.135 40.2094C153.408 40.2094 153.657 40.11 153.855 39.911C154.054 39.7121 154.153 39.4634 154.153 39.1899V32.7245Z" fill="#F9A720"/>
<path d="M145.04 29.9395C145.835 29.9395 146.481 30.213 147.027 30.7601C147.573 31.3071 147.846 31.9785 147.846 32.7494V39.1899C147.846 39.9856 147.573 40.6322 147.027 41.1792C146.481 41.7263 145.81 41.9998 145.04 41.9998C144.246 41.9998 143.6 41.7263 143.054 41.1792C142.508 40.6322 142.234 39.9608 142.234 39.1899V32.7494C142.234 31.9785 142.508 31.3071 143.054 30.7601C143.6 30.213 144.246 29.9395 145.04 29.9395ZM146.009 32.7245C146.009 32.451 145.909 32.2023 145.711 32.0034C145.512 31.8045 145.264 31.705 144.991 31.705C144.718 31.705 144.469 31.8045 144.271 32.0034C144.072 32.2023 143.973 32.451 143.973 32.7245V39.1899C143.973 39.4634 144.072 39.7121 144.271 39.911C144.469 40.11 144.718 40.2094 144.991 40.2094C145.264 40.2094 145.512 40.11 145.711 39.911C145.909 39.7121 146.009 39.4634 146.009 39.1899V32.7245Z" fill="#F9A720"/>
<path d="M136.846 30.0888C137.839 30.0888 138.559 30.3624 139.031 30.9094C139.429 31.3819 139.652 32.0533 139.652 32.8988V34.6146C139.652 35.4601 139.329 36.1563 138.708 36.7283L140.025 41.8757H138.113L137.045 37.4245H136.896H135.878V41.8757H134.09V30.064H136.846V30.0888ZM137.914 32.9236C137.914 32.2522 137.566 31.9041 136.896 31.9041H135.828V35.6839H136.896C137.169 35.6839 137.417 35.5844 137.616 35.3855C137.815 35.1865 137.914 34.9379 137.914 34.6643V32.9236Z" fill="#F9A720"/>
<path d="M161.379 8.50461C161.379 7.88294 161.056 7.55967 160.435 7.55967H156.065C155.469 7.55967 155.121 7.21153 155.121 6.61473V3.10851C155.121 2.48684 155.469 2.16357 156.065 2.16357H172.056C172.677 2.16357 173 2.48684 173 3.10851V6.61473C173 7.21153 172.677 7.55967 172.056 7.55967H167.686C167.09 7.55967 166.742 7.88294 166.742 8.50461V23.1511C166.742 23.748 166.419 24.0961 165.799 24.0961H162.297C161.701 24.0961 161.354 23.748 161.354 23.1511L161.379 8.50461Z" fill="white"/>
<path d="M139.627 2.18848C140.149 2.18848 140.496 2.41228 140.72 2.90961L144.966 13.3288C145.09 13.6023 145.338 13.5526 145.338 13.2293V3.13341C145.338 2.51174 145.686 2.18848 146.282 2.18848H149.783C150.404 2.18848 150.727 2.51174 150.727 3.13341V23.1512C150.727 23.748 150.404 24.0961 149.783 24.0961H145.189C144.668 24.0961 144.32 23.8723 144.097 23.375L139.851 12.9558C139.727 12.6823 139.478 12.732 139.478 13.0553V23.1512C139.478 23.748 139.155 24.0961 138.535 24.0961H135.033C134.437 24.0961 134.09 23.748 134.09 23.1512V3.13341C134.09 2.51174 134.437 2.18848 135.033 2.18848H139.627Z" fill="white"/>
<path d="M131.01 11.7867C130.737 10.792 130.191 9.89681 129.943 9.67301C129.545 9.32487 129.545 10.1703 129.545 10.1703C129.371 10.0957 128.825 10.5185 129.098 10.6179C130.439 11.165 130.265 14.4723 128.204 14.5966C126.143 14.721 126.218 12.657 126.118 8.67833C126.019 4.69965 125.2 2.83464 123.834 1.79023C120.805 -0.547244 113.032 -0.34831 107.718 0.944763C105.657 1.4421 103.472 2.73517 102.231 7.03713C101.858 8.28047 101.709 10.1952 101.684 12.2592C101.684 12.6073 100.269 14.4972 100.741 14.7956C101.113 15.0194 101.684 13.8009 101.684 14.0496C101.759 18.6748 102.33 23.4989 102.429 23.7725C102.653 24.3941 105.732 24.1455 105.98 23.7973C106.154 23.5735 106.03 22.6037 106.129 21.0371C106.253 19.4705 107.271 19.197 107.917 19.2716C108.563 19.3462 111.22 19.3959 112.859 19.2467C114.497 19.0975 114.448 19.8187 114.448 20.2414C114.448 20.6641 114.597 23.1259 114.671 23.7227C114.746 24.2201 118.818 23.9963 118.818 23.4492C118.818 23.1011 119.066 17.9785 119.141 15.9892C119.215 13.9998 119.265 13.229 119.489 13.3036C119.712 13.3782 121.003 15.268 124.678 16.4865C127.807 17.506 130.216 16.014 130.961 13.9998C131.11 13.5274 131.209 12.5576 131.01 11.7867ZM116.832 11.0904C116.534 12.3586 116.36 15.641 113.653 12.856C111.89 11.0407 110.599 8.927 110.226 7.90746C109.928 7.11173 109.208 4.74938 111.021 3.72984C112.834 2.68544 116.037 2.85951 116.459 2.90924C116.881 2.95897 117.527 3.38171 117.502 4.60018C117.477 6.14192 117.105 9.99627 116.832 11.0904ZM121.599 8.7778C121.227 8.7778 120.358 7.90746 120.358 7.53446C120.358 7.16146 121.227 6.29112 121.599 6.29112C121.972 6.29112 122.841 7.16146 122.841 7.53446C122.841 7.90746 121.972 8.7778 121.599 8.7778Z" fill="#F9A720"/>
<path d="M84.6753 2.18848C85.2712 2.18848 85.6189 2.53661 85.6189 3.13341V10.9665C85.6189 11.5633 85.9665 11.9114 86.5625 11.9114H89.5671C90.1878 11.9114 90.5106 11.5633 90.5106 10.9665V3.13341C90.5106 2.53661 90.8583 2.18848 91.4542 2.18848H94.9555C95.5762 2.18848 95.899 2.51174 95.899 3.13341V23.1512C95.899 23.748 95.5762 24.0961 94.9555 24.0961H91.4542C90.8583 24.0961 90.5106 23.748 90.5106 23.1512V18.2027C90.5106 17.581 90.1878 17.2578 89.5671 17.2578H86.5625C85.9665 17.2578 85.6189 17.581 85.6189 18.2027V23.1512C85.6189 23.748 85.2961 24.0961 84.6753 24.0961H81.1741C80.5781 24.0961 80.2305 23.748 80.2305 23.1512V3.13341C80.2305 2.51174 80.5533 2.18848 81.1741 2.18848H84.6753Z" fill="white"/>
<path d="M68.0133 2.18848C73.5755 2.18848 75.8352 4.57569 75.8352 9.69825C75.8352 14.8208 73.5755 17.208 68.0133 17.208H66.5234C65.9274 17.208 65.5798 17.5313 65.5798 18.153V23.1512C65.5798 23.7729 65.257 24.0961 64.6362 24.0961H61.135C60.539 24.0961 60.1914 23.748 60.1914 23.1512V3.15828C60.1914 2.53661 60.5142 2.21334 61.135 2.18848H68.0133ZM68.2119 11.8119C69.7018 11.8119 70.4716 11.6379 70.4716 9.67338C70.4716 7.73377 69.7267 7.53484 68.2119 7.53484H66.5234C65.9274 7.53484 65.5798 7.8581 65.5798 8.47977V10.867C65.5798 11.4638 65.9274 11.8119 66.5234 11.8119H68.2119Z" fill="white"/>
<path d="M53.7342 2.18848C54.355 2.18848 54.6778 2.51174 54.6778 3.13341V6.63963C54.6778 7.23643 54.355 7.58457 53.7342 7.58457H46.1607C45.5647 7.58457 45.2171 7.90784 45.2171 8.52951V9.52418C45.2171 10.121 45.5647 10.4691 46.1607 10.4691H51.0028C51.6236 10.4691 51.9464 10.7675 51.9464 11.4141V14.9203C51.9464 15.5171 51.6236 15.8652 51.0028 15.8652H46.1607C45.5647 15.8652 45.2171 16.1885 45.2171 16.8101V17.8048C45.2171 18.4016 45.5647 18.7498 46.1607 18.7498H53.7342C54.355 18.7498 54.6778 19.073 54.6778 19.6947V23.2009C54.6778 23.8226 54.355 24.1458 53.7342 24.1458H40.6233C40.0273 24.1458 39.6797 23.7977 39.6797 23.2009V3.18315C39.6797 2.56148 40.0273 2.23821 40.6233 2.23821H53.7342V2.18848Z" fill="white"/>
<path d="M24.8321 2.18848C25.4529 2.18848 25.7757 2.51174 25.7757 3.13341V17.78C25.7757 18.3768 26.1233 18.7249 26.7193 18.7249H33.6969C34.3177 18.7249 34.6405 19.0482 34.6405 19.6698V23.176C34.6405 23.7977 34.3425 24.121 33.6969 24.121H21.3557C20.7597 24.121 20.4121 23.7728 20.4121 23.176V3.15828C20.4121 2.53661 20.7597 2.21334 21.3557 2.21334H24.8321V2.18848Z" fill="white"/>
<path d="M14.0545 2.18848C14.6753 2.18848 14.9981 2.51174 14.9981 3.13341V6.63963C14.9981 7.23643 14.6753 7.58457 14.0545 7.58457H6.50581C5.90986 7.58457 5.56222 7.90784 5.56222 8.52951V9.52418C5.56222 10.121 5.90986 10.4691 6.50581 10.4691H11.3479C11.9687 10.4691 12.2915 10.7675 12.2915 11.4141V14.9203C12.2915 15.5171 11.9687 15.8652 11.3479 15.8652H6.50581C5.90986 15.8652 5.56222 16.1885 5.56222 16.8101V17.8048C5.56222 18.4016 5.90986 18.7498 6.50581 18.7498H14.0794C14.7002 18.7498 15.023 19.073 15.023 19.6947V23.2009C15.023 23.8226 14.7002 24.1458 14.0794 24.1458H0.943591C0.347639 24.1458 0 23.7977 0 23.2009V3.18315C0 2.56148 0.347639 2.23821 0.943591 2.23821H14.0545V2.18848Z" fill="white"/>
</g>
<defs>
<clipPath id="clip0">
<rect width="173" height="42" fill="white"/>
</clipPath>
</defs>
</svg>
